<?xml version="1.0" encoding="UTF-8" standalone="no"?>
<!-- Created with Inkscape (http://www.inkscape.org/) -->

<svg
   xmlns:dc="http://purl.org/dc/elements/1.1/"
   xmlns:cc="http://creativecommons.org/ns#"
   xmlns:rdf="http://www.w3.org/1999/02/22-rdf-syntax-ns#"
   xmlns:svg="http://www.w3.org/2000/svg"
   xmlns="http://www.w3.org/2000/svg"
   xmlns:sodipodi="http://sodipodi.sourceforge.net/DTD/sodipodi-0.dtd"
   xmlns:inkscape="http://www.inkscape.org/namespaces/inkscape"
   width="210"
   height="180"
   viewBox="0 0 55.562499 47.625001"
   version="1.1"
   id="svg8"
   inkscape:version="0.92.2 5c3e80d, 2017-08-06"
   sodipodi:docname="go_monopoly.svg">
  <defs
     id="defs2" />
  <sodipodi:namedview
     id="base"
     pagecolor="#ffffff"
     bordercolor="#666666"
     borderopacity="1.0"
     inkscape:pageopacity="0.0"
     inkscape:pageshadow="2"
     inkscape:zoom="2.8"
     inkscape:cx="115.75758"
     inkscape:cy="66.93259"
     inkscape:document-units="mm"
     inkscape:current-layer="g936"
     showgrid="false"
     inkscape:window-width="1440"
     inkscape:window-height="791"
     inkscape:window-x="0"
     inkscape:window-y="1"
     inkscape:window-maximized="1"
     units="px" />
  <metadata
     id="metadata5">
    <rdf:RDF>
      <cc:Work
         rdf:about="">
        <dc:format>image/svg+xml</dc:format>
        <dc:type
           rdf:resource="http://purl.org/dc/dcmitype/StillImage" />
        <dc:title></dc:title>
      </cc:Work>
    </rdf:RDF>
  </metadata>
  <g
     inkscape:label="Calque 1"
     inkscape:groupmode="layer"
     id="layer1"
     transform="translate(0,-249.37498)">
    <g
       id="g936"
       transform="matrix(0.38964578,0,0,0.38964578,-14.506665,231.38865)"
       style="stroke-width:2.56643343">
      <g
         id="g965"
         transform="translate(3.3951778,-3.3951651)">
        <path
           sodipodi:nodetypes="cscccscccsccscscscsccscccssssccsccsssccscccsccccsssccscssssscccscccssssscccsccccscsc"
           inkscape:connector-curvature="0"
           id="path938"
           d="m 99.669487,147.74284 c -0.09847,-0.184 -0.676735,-0.74977 -1.285026,-1.25726 -0.608292,-0.50749 -2.495046,-2.21054 -4.192789,-3.78456 -1.697743,-1.57401 -4.91243,-4.51917 -7.143749,-6.54478 -2.23132,-2.02562 -6.249176,-5.70843 -8.928569,-8.18403 -2.679395,-2.47559 -7.492271,-6.84264 -10.69528,-9.70455 -3.20301,-2.86191 -5.924897,-5.38076 -6.048639,-5.59744 -0.147553,-0.25838 -0.169732,-0.50319 -0.06444,-0.71131 0.154425,-0.30524 4.680687,-4.64224 7.130383,-6.83222 1.745459,-1.56042 9.470883,-8.87515 13.22676,-12.523615 5.291705,-5.140372 6.498903,-6.261849 6.739621,-6.261043 0.125217,3.53e-4 0.595036,0.337762 1.044043,0.749653 0.449006,0.411889 1.883043,1.723928 3.186747,2.915639 2.56828,2.347659 3.726268,3.616165 3.637849,3.985047 -0.03094,0.129078 -1.445314,1.535828 -3.143057,3.126114 -9.386536,8.792415 -16.178993,15.368125 -16.362441,15.840325 -0.06486,0.16695 1.812119,1.96129 8.336747,7.96972 4.997162,4.60181 7.099661,6.51333 12.725835,11.56989 0.790321,0.7103 1.574451,1.29146 1.74251,1.29146 0.341893,0 0.925218,-0.49485 3.620608,-3.07151 1.02365,-0.97855 3.22631,-3.07909 4.89479,-4.66787 1.77186,-1.6872 3.03361,-3.02306 3.03361,-3.21178 0,-0.38322 -6.91096,-6.74757 -7.41871,-6.83194 -0.23179,-0.0385 -1.04067,0.61921 -2.58872,2.10497 -1.238374,1.18854 -3.02435,2.90047 -3.968835,3.80428 -0.944483,0.90381 -1.810117,1.6433 -1.923628,1.6433 -0.321561,0 -1.325221,-0.81064 -3.155612,-2.54872 -0.924662,-0.87803 -2.174818,-2.06003 -2.778124,-2.62667 -0.603305,-0.56664 -1.096919,-1.12544 -1.096919,-1.24178 0,-0.26895 0.939783,-1.2777 2.734028,-2.93467 1.357612,-1.25374 8.14712,-7.75628 11.82811,-11.32818 0.97567,-0.94676 1.8849,-1.72137 2.02051,-1.72137 0.13561,0 0.84546,0.58709 1.57744,1.30465 0.73199,0.71755 4.02963,3.74487 7.3281,6.72738 13.67304,12.36325 13.84653,12.52655 13.84653,13.03321 0,0.25413 -1.54125,1.81516 -4.9775,5.04137 -2.73763,2.57029 -7.15462,6.737 -9.81554,9.25936 -2.66092,2.52236 -5.4812,5.18037 -6.26729,5.90669 -0.78609,0.72633 -2.456,2.29398 -3.71092,3.48368 -1.25492,1.18971 -2.4229,2.1631 -2.59553,2.1631 -0.172621,0 -0.394428,-0.15054 -0.492901,-0.33454 z m 31.913153,-34.37921 c -1.50562,-1.42588 -3.92488,-3.66406 -5.37612,-4.97375 -1.45124,-1.30969 -3.31756,-3.01625 -4.14738,-3.79236 -0.82981,-0.77611 -2.73271,-2.52236 -4.22866,-3.88056 -1.49595,-1.35819 -3.64983,-3.342565 -4.78639,-4.409718 -4.05261,-3.805096 -5.49862,-5.115359 -5.95462,-5.395597 -0.25431,-0.156289 -1.81487,-1.546218 -3.46791,-3.088728 -1.65304,-1.54251 -4.173196,-3.864049 -5.600346,-5.158975 -1.563918,-1.419022 -2.59482,-2.484439 -2.59482,-2.681696 0,-0.453766 1.808311,-2.418645 4.317841,-4.691694 1.162145,-1.052626 3.702145,-3.416593 5.644445,-5.25326 1.94231,-1.836669 4.96021,-4.689228 6.70646,-6.339022 1.74625,-1.649793 4.08842,-3.877691 5.20483,-4.950883 4.19834,-4.03584 5.67583,-5.39084 5.87815,-5.39084 0.11464,0 1.48579,1.170782 3.04699,2.601736 1.5612,1.430955 5.52938,5.070604 8.81818,8.088108 11.77321,10.802042 21.02462,19.24031 23.18525,21.147421 2.99116,2.640188 4.40202,4.035872 4.40202,4.354679 0,0.147075 -0.93266,1.130476 -2.07257,2.185338 -1.13992,1.054862 -2.82663,2.643099 -3.74827,3.529418 -2.48124,2.386177 -5.52354,5.274903 -7.32013,6.950633 -0.87313,0.81438 -2.54,2.40194 -3.70417,3.52791 -6.01738,5.81993 -10.87841,10.23905 -11.24591,10.22357 -0.12065,-0.005 -1.45124,-1.17586 -2.95687,-2.60173 z m 3.75327,-13.20938 c 0.60549,-0.552025 3.34324,-3.136669 6.08388,-5.743652 3.76377,-3.580212 4.98299,-4.841233 4.98299,-5.153833 0,-0.29732 -0.40979,-0.774413 -1.45521,-1.694216 -2.12888,-1.873077 -6.15872,-5.519035 -7.79431,-7.051819 -0.7821,-0.732942 -2.09669,-1.91164 -2.92131,-2.619326 -0.82462,-0.707686 -2.29306,-2.056292 -3.2632,-2.996898 -0.97014,-0.940608 -2.31951,-2.182035 -2.99861,-2.758726 -0.67909,-0.576691 -1.85646,-1.624812 -2.61637,-2.329159 -0.75991,-0.704345 -1.51945,-1.280629 -1.68786,-1.280629 -0.31515,0 -7.50353,6.634917 -10.75182,9.923997 -2.1009,2.127269 -2.09753,2.110449 -0.68065,3.399806 0.50602,0.460472 1.31691,1.206895 1.80198,1.658715 0.48507,0.451822 2.11226,1.927269 3.61597,3.278771 1.50372,1.351503 4.24216,3.84861 6.08542,5.549126 3.34403,3.085063 7.8698,7.173784 9.13426,8.252173 0.36718,0.31315 0.82427,0.56936 1.01577,0.56936 0.19149,0 0.84358,-0.45166 1.44907,-1.00369 z"
           style="fill:#de3834;stroke-width:2.56643343" />
        <path
           style="fill:#de3834;fill-opacity:1;stroke-width:2.56643343"
           d="m 149.6783,167.58131 c 1.09324,-0.42316 7.85073,-3.26634 10.49514,-4.41579 0.82462,-0.35844 2.29305,-0.99719 3.26319,-1.41944 0.97014,-0.42225 2.75608,-1.17506 3.96875,-1.67291 1.21268,-0.49785 2.76622,-1.14295 3.45233,-1.43355 1.9496,-0.82576 2.63122,-1.66101 1.88344,-2.30794 -0.16978,-0.14688 -1.26118,-0.7408 -2.42535,-1.31983 -4.15171,-2.06497 -6.18,-3.10912 -6.61458,-3.40517 -0.24254,-0.16521 -2.42532,-1.31567 -4.85064,-2.55657 -2.42531,-1.2409 -5.24312,-2.73377 -6.2618,-3.31749 -1.01868,-0.58371 -2.18718,-1.25293 -2.59667,-1.48715 -0.43239,-0.24731 -0.95003,-0.40224 -1.23472,-0.36954 l -0.4902,0.0563 -0.17639,4.01971 c -0.14176,3.23065 -0.22833,4.05575 -0.44097,4.20332 -0.46746,0.32441 -77.62448,-0.13158 -78.16345,-0.46193 -0.15827,-0.097 -1.50765,-1.35585 -2.99861,-2.79742 -1.49097,-1.44158 -2.8796,-2.68603 -3.08585,-2.76544 -0.20624,-0.0794 -6.10727,-0.1626 -13.1134,-0.18485 -13.12796,-0.0417 -13.04253,-0.0455 -13.05543,0.58885 -10e-4,0.073 0.81089,0.90505 1.80528,1.84893 3.97471,3.77279 7.01146,6.83548 7.01146,7.07133 0,0.13688 -0.29765,0.53735 -0.66146,0.88993 -0.3638,0.35259 -2.34817,2.26139 -4.40972,4.24179 -2.06154,1.9804 -3.74826,3.69816 -3.74826,3.81723 0,0.11908 0.13891,0.28156 0.30868,0.36108 0.16977,0.0795 6.15739,0.17322 13.30582,0.20822 l 12.99714,0.0636 1.28333,-1.20358 c 0.70583,-0.66196 2.03395,-1.91067 2.95137,-2.77489 l 1.66804,-1.57132 12.18552,0.10869 c 6.70203,0.0598 24.17114,0.20324 38.82023,0.31879 14.6491,0.11556 26.66822,0.23838 26.70915,0.27293 0.0829,0.07 0.0888,0.16192 0.27931,4.3825 0.0745,1.64924 0.21363,3.09783 0.30929,3.2191 0.23129,0.29321 0.38779,0.27329 1.63003,-0.20753 z"
           id="path961"
           inkscape:connector-curvature="0"
           sodipodi:nodetypes="ccssccscsccccsccscsccsccscccccccsccccc" />
      </g>
    </g>
  </g>
</svg>
